<svg xmlns="http://www.w3.org/2000/svg" xmlns:xlink="http://www.w3.org/1999/xlink" width="332" zoomAndPan="magnify" viewBox="0 0 249 61.499998" height="82" preserveAspectRatio="xMidYMid meet" version="1.0"><defs><g/><clipPath id="1ea249717e"><path d="M 99 8.792969 L 235 8.792969 L 235 52.210938 L 99 52.210938 Z M 99 8.792969 " clip-rule="nonzero"/></clipPath><clipPath id="4bc7dc783e"><path d="M 130.816406 8.792969 L 228.628906 8.792969 C 230.761719 8.792969 232.730469 9.9375 233.789062 11.789062 C 234.84375 13.640625 234.824219 15.917969 233.738281 17.753906 L 218.640625 43.25 C 215.351562 48.804688 209.375 52.210938 202.917969 52.210938 L 105.105469 52.210938 C 102.972656 52.210938 101.003906 51.066406 99.945312 49.214844 C 98.890625 47.363281 98.910156 45.085938 99.996094 43.25 L 115.09375 17.753906 C 118.382812 12.199219 124.359375 8.792969 130.816406 8.792969 Z M 130.816406 8.792969 " clip-rule="nonzero"/></clipPath></defs><g clip-path="url(#1ea249717e)"><g clip-path="url(#4bc7dc783e)"><path fill="#000000" d="M 94.6875 8.792969 L 239.046875 8.792969 L 239.046875 52.210938 L 94.6875 52.210938 Z M 94.6875 8.792969 " fill-opacity="1" fill-rule="nonzero"/></g></g><g fill="#ff914d" fill-opacity="1"><g transform="translate(9.955042, 44.565017)"><g><path d="M 22.125 -20.359375 L 14.40625 -20.359375 L 14.40625 0 L 7.890625 0 L 7.890625 -20.359375 L 0.25 -20.359375 L 0.25 -25.625 L 22.125 -25.625 Z M 22.125 -20.359375 "/></g></g></g><g fill="#ff914d" fill-opacity="1"><g transform="translate(30.20776, 44.565017)"><g><path d="M 11.15625 -19.921875 C 14.5625 -19.921875 17.125 -18.875 18.84375 -16.78125 C 20.5625 -14.6875 21.3125 -11.8125 21.09375 -8.15625 L 7.234375 -8.15625 C 7.554688 -6.976562 8.117188 -6.070312 8.921875 -5.4375 C 9.722656 -4.8125 10.707031 -4.5 11.875 -4.5 C 13.6875 -4.5 15.257812 -5.171875 16.59375 -6.515625 L 19.921875 -3.25 C 17.804688 -0.9375 14.941406 0.21875 11.328125 0.21875 C 8.140625 0.21875 5.597656 -0.691406 3.703125 -2.515625 C 1.816406 -4.347656 0.875 -6.773438 0.875 -9.796875 C 0.875 -12.847656 1.816406 -15.296875 3.703125 -17.140625 C 5.597656 -18.992188 8.082031 -19.921875 11.15625 -19.921875 Z M 7.125 -11.546875 L 15.03125 -11.546875 C 15.03125 -12.742188 14.679688 -13.707031 13.984375 -14.4375 C 13.285156 -15.164062 12.363281 -15.53125 11.21875 -15.53125 C 10.144531 -15.53125 9.242188 -15.171875 8.515625 -14.453125 C 7.785156 -13.734375 7.320312 -12.765625 7.125 -11.546875 Z M 7.125 -11.546875 "/></g></g></g><g fill="#ff914d" fill-opacity="1"><g transform="translate(50.131457, 44.565017)"><g><path d="M 11.109375 -19.921875 C 13.066406 -19.921875 14.804688 -19.535156 16.328125 -18.765625 C 17.847656 -18.003906 19.035156 -16.914062 19.890625 -15.5 L 15.359375 -12.765625 C 14.378906 -14.128906 13.050781 -14.8125 11.375 -14.8125 C 10.15625 -14.8125 9.160156 -14.351562 8.390625 -13.4375 C 7.617188 -12.519531 7.234375 -11.316406 7.234375 -9.828125 C 7.234375 -8.316406 7.609375 -7.101562 8.359375 -6.1875 C 9.117188 -5.28125 10.125 -4.828125 11.375 -4.828125 C 13.226562 -4.828125 14.566406 -5.570312 15.390625 -7.0625 L 20 -4.34375 C 19.195312 -2.882812 18.019531 -1.757812 16.46875 -0.96875 C 14.925781 -0.175781 13.117188 0.21875 11.046875 0.21875 C 7.992188 0.21875 5.535156 -0.695312 3.671875 -2.53125 C 1.804688 -4.375 0.875 -6.796875 0.875 -9.796875 C 0.875 -12.816406 1.816406 -15.257812 3.703125 -17.125 C 5.597656 -18.988281 8.066406 -19.921875 11.109375 -19.921875 Z M 11.109375 -19.921875 "/></g></g></g><g fill="#ff914d" fill-opacity="1"><g transform="translate(68.592815, 44.565017)"><g><path d="M 15.65625 -20 C 17.820312 -20 19.5625 -19.3125 20.875 -17.9375 C 22.1875 -16.5625 22.84375 -14.726562 22.84375 -12.4375 L 22.84375 0 L 16.53125 0 L 16.53125 -10.671875 C 16.53125 -11.816406 16.21875 -12.722656 15.59375 -13.390625 C 14.96875 -14.066406 14.117188 -14.40625 13.046875 -14.40625 C 11.828125 -14.40625 10.851562 -13.960938 10.125 -13.078125 C 9.394531 -12.203125 9.03125 -11.082031 9.03125 -9.71875 L 9.03125 0 L 2.703125 0 L 2.703125 -27.125 L 9.03125 -27.125 L 9.03125 -16.453125 C 10.414062 -18.765625 12.625 -19.945312 15.65625 -20 Z M 15.65625 -20 "/></g></g></g><g fill="#ffffff" fill-opacity="1"><g transform="translate(122.747197, 44.903757)"><g><path d="M 17.484375 -25.625 L 17.484375 -8.296875 C 17.484375 -5.585938 16.695312 -3.476562 15.125 -1.96875 C 13.550781 -0.457031 11.382812 0.296875 8.625 0.296875 C 5.144531 0.296875 2.207031 -1.066406 -0.1875 -3.796875 L 2.8125 -8.15625 C 4.644531 -6.25 6.4375 -5.296875 8.1875 -5.296875 C 10.019531 -5.296875 10.9375 -6.347656 10.9375 -8.453125 L 10.9375 -20.359375 L 2.15625 -20.359375 L 2.15625 -25.625 Z M 17.484375 -25.625 "/></g></g></g><g fill="#ffffff" fill-opacity="1"><g transform="translate(140.261534, 44.903757)"><g><path d="M 11.65625 -19.921875 C 14.875 -19.921875 17.46875 -19 19.4375 -17.15625 C 21.414062 -15.320312 22.40625 -12.894531 22.40625 -9.875 C 22.40625 -6.851562 21.414062 -4.414062 19.4375 -2.5625 C 17.46875 -0.707031 14.875 0.21875 11.65625 0.21875 C 8.414062 0.21875 5.804688 -0.707031 3.828125 -2.5625 C 1.859375 -4.414062 0.875 -6.851562 0.875 -9.875 C 0.875 -12.894531 1.859375 -15.320312 3.828125 -17.15625 C 5.804688 -19 8.414062 -19.921875 11.65625 -19.921875 Z M 11.65625 -14.921875 C 10.34375 -14.921875 9.273438 -14.441406 8.453125 -13.484375 C 7.640625 -12.535156 7.234375 -11.304688 7.234375 -9.796875 C 7.234375 -8.265625 7.640625 -7.03125 8.453125 -6.09375 C 9.273438 -5.15625 10.34375 -4.6875 11.65625 -4.6875 C 12.945312 -4.6875 14 -5.15625 14.8125 -6.09375 C 15.632812 -7.03125 16.046875 -8.265625 16.046875 -9.796875 C 16.046875 -11.304688 15.632812 -12.535156 14.8125 -13.484375 C 14 -14.441406 12.945312 -14.921875 11.65625 -14.921875 Z M 11.65625 -14.921875 "/></g></g></g><g fill="#ffffff" fill-opacity="1"><g transform="translate(161.46891, 44.903757)"><g><path d="M 14.921875 -19.921875 C 17.691406 -19.921875 19.925781 -18.988281 21.625 -17.125 C 23.320312 -15.257812 24.171875 -12.804688 24.171875 -9.765625 C 24.171875 -6.765625 23.335938 -4.347656 21.671875 -2.515625 C 20.015625 -0.691406 17.8125 0.21875 15.0625 0.21875 C 12.476562 0.21875 10.46875 -0.726562 9.03125 -2.625 L 9.03125 0 L 2.703125 0 L 2.703125 -27.125 L 9.03125 -27.125 L 9.03125 -17.109375 C 10.488281 -18.984375 12.453125 -19.921875 14.921875 -19.921875 Z M 13.375 -4.796875 C 14.695312 -4.796875 15.765625 -5.273438 16.578125 -6.234375 C 17.398438 -7.191406 17.8125 -8.425781 17.8125 -9.9375 C 17.8125 -11.457031 17.398438 -12.691406 16.578125 -13.640625 C 15.765625 -14.585938 14.695312 -15.0625 13.375 -15.0625 C 12.113281 -15.0625 11.070312 -14.585938 10.25 -13.640625 C 9.4375 -12.691406 9.03125 -11.457031 9.03125 -9.9375 C 9.03125 -8.40625 9.429688 -7.164062 10.234375 -6.21875 C 11.035156 -5.269531 12.082031 -4.796875 13.375 -4.796875 Z M 13.375 -4.796875 "/></g></g></g><g fill="#ffffff" fill-opacity="1"><g transform="translate(184.431403, 44.903757)"><g><path d="M 9.578125 -20 C 12.484375 -20 15.191406 -19.253906 17.703125 -17.765625 L 15.53125 -13.671875 C 13.09375 -14.992188 11.023438 -15.65625 9.328125 -15.65625 C 8.035156 -15.65625 7.390625 -15.203125 7.390625 -14.296875 C 7.390625 -13.804688 7.738281 -13.394531 8.4375 -13.0625 C 9.144531 -12.738281 10.007812 -12.441406 11.03125 -12.171875 C 12.0625 -11.898438 13.082031 -11.5625 14.09375 -11.15625 C 15.101562 -10.757812 15.960938 -10.125 16.671875 -9.25 C 17.378906 -8.375 17.734375 -7.300781 17.734375 -6.03125 C 17.734375 -4.0625 16.960938 -2.519531 15.421875 -1.40625 C 13.890625 -0.300781 11.894531 0.25 9.4375 0.25 C 5.945312 0.25 2.992188 -0.671875 0.578125 -2.515625 L 2.59375 -6.546875 C 4.90625 -4.910156 7.234375 -4.09375 9.578125 -4.09375 C 11.015625 -4.09375 11.734375 -4.546875 11.734375 -5.453125 C 11.734375 -5.960938 11.382812 -6.382812 10.6875 -6.71875 C 10 -7.0625 9.15625 -7.367188 8.15625 -7.640625 C 7.15625 -7.910156 6.15625 -8.242188 5.15625 -8.640625 C 4.15625 -9.046875 3.304688 -9.675781 2.609375 -10.53125 C 1.921875 -11.382812 1.578125 -12.457031 1.578125 -13.75 C 1.578125 -15.71875 2.316406 -17.25 3.796875 -18.34375 C 5.285156 -19.445312 7.210938 -20 9.578125 -20 Z M 9.578125 -20 "/></g></g></g></svg>